<svg width="32" height="32" viewBox="0 0 32 32" fill="none" xmlns="http://www.w3.org/2000/svg">
<g id="call_FILL1_wght400_GRAD0_opsz24 1">
<path id="Vector" d="M26.6 28C23.8222 28 21.0778 27.3944 18.3667 26.1833C15.6556 24.9722 13.1889 23.2556 10.9667 21.0333C8.74444 18.8111 7.02778 16.3444 5.81667 13.6333C4.60556 10.9222 4 8.17778 4 5.4C4 5 4.13333 4.66667 4.4 4.4C4.66667 4.13333 5 4 5.4 4H10.8C11.1111 4 11.3889 4.10556 11.6333 4.31667C11.8778 4.52778 12.0222 4.77778 12.0667 5.06667L12.9333 9.73333C12.9778 10.0889 12.9667 10.3889 12.9 10.6333C12.8333 10.8778 12.7111 11.0889 12.5333 11.2667L9.3 14.5333C9.74444 15.3556 10.2722 16.15 10.8833 16.9167C11.4944 17.6833 12.1667 18.4222 12.9 19.1333C13.5889 19.8222 14.3111 20.4611 15.0667 21.05C15.8222 21.6389 16.6222 22.1778 17.4667 22.6667L20.6 19.5333C20.8 19.3333 21.0611 19.1833 21.3833 19.0833C21.7056 18.9833 22.0222 18.9556 22.3333 19L26.9333 19.9333C27.2444 20.0222 27.5 20.1833 27.7 20.4167C27.9 20.65 28 20.9111 28 21.2V26.6C28 27 27.8667 27.3333 27.6 27.6C27.3333 27.8667 27 28 26.6 28Z" fill="white"/>
</g>
</svg>
