<svg width="33" height="32" viewBox="0 0 33 32" fill="none" xmlns="http://www.w3.org/2000/svg">
<g id="favorite_FILL0_wght400_GRAD0_opsz24 1">
<path id="Vector" d="M16.0643 27.9999L14.131 26.2665C11.8865 24.2443 10.031 22.4999 8.56429 21.0332C7.09762 19.5665 5.93096 18.2499 5.06429 17.0832C4.19762 15.9165 3.59207 14.8443 3.24762 13.8665C2.90318 12.8888 2.73096 11.8888 2.73096 10.8665C2.73096 8.77765 3.43096 7.0332 4.83096 5.6332C6.23096 4.2332 7.9754 3.5332 10.0643 3.5332C11.2198 3.5332 12.3198 3.77765 13.3643 4.26654C14.4087 4.75543 15.3087 5.44431 16.0643 6.3332C16.8198 5.44431 17.7198 4.75543 18.7643 4.26654C19.8087 3.77765 20.9087 3.5332 22.0643 3.5332C24.1532 3.5332 25.8976 4.2332 27.2976 5.6332C28.6976 7.0332 29.3976 8.77765 29.3976 10.8665C29.3976 11.8888 29.2254 12.8888 28.881 13.8665C28.5365 14.8443 27.931 15.9165 27.0643 17.0832C26.1976 18.2499 25.031 19.5665 23.5643 21.0332C22.0976 22.4999 20.2421 24.2443 17.9976 26.2665L16.0643 27.9999ZM16.0643 24.3999C18.1976 22.4888 19.9532 20.8499 21.331 19.4832C22.7087 18.1165 23.7976 16.9276 24.5976 15.9165C25.3976 14.9054 25.9532 14.0054 26.2643 13.2165C26.5754 12.4276 26.731 11.6443 26.731 10.8665C26.731 9.5332 26.2865 8.42209 25.3976 7.5332C24.5087 6.64431 23.3976 6.19987 22.0643 6.19987C21.0198 6.19987 20.0532 6.49431 19.1643 7.0832C18.2754 7.67209 17.6643 8.42209 17.331 9.3332H14.7976C14.4643 8.42209 13.8532 7.67209 12.9643 7.0832C12.0754 6.49431 11.1087 6.19987 10.0643 6.19987C8.73096 6.19987 7.61985 6.64431 6.73096 7.5332C5.84207 8.42209 5.39762 9.5332 5.39762 10.8665C5.39762 11.6443 5.55318 12.4276 5.86429 13.2165C6.1754 14.0054 6.73096 14.9054 7.53096 15.9165C8.33096 16.9276 9.41985 18.1165 10.7976 19.4832C12.1754 20.8499 13.931 22.4888 16.0643 24.3999Z" fill="black"/>
</g>
</svg>
