<svg width="34" height="32" viewBox="0 0 34 32" fill="none" xmlns="http://www.w3.org/2000/svg">
<g id="search_FILL0_wght400_GRAD0_opsz24 (1) 1">
<path id="Vector" d="M27.213 28L18.5827 19.6C17.8978 20.1333 17.1101 20.5556 16.2197 20.8667C15.3292 21.1778 14.3817 21.3333 13.3772 21.3333C10.8885 21.3333 8.78233 20.4944 7.05856 18.8167C5.33479 17.1389 4.4729 15.0889 4.4729 12.6667C4.4729 10.2444 5.33479 8.19444 7.05856 6.51667C8.78233 4.83889 10.8885 4 13.3772 4C15.8658 4 17.972 4.83889 19.6958 6.51667C21.4195 8.19444 22.2814 10.2444 22.2814 12.6667C22.2814 13.6444 22.1216 14.5667 21.802 15.4333C21.4823 16.3 21.0485 17.0667 20.5006 17.7333L29.1308 26.1333L27.213 28ZM13.3772 18.6667C15.0895 18.6667 16.545 18.0833 17.7437 16.9167C18.9423 15.75 19.5416 14.3333 19.5416 12.6667C19.5416 11 18.9423 9.58333 17.7437 8.41667C16.545 7.25 15.0895 6.66667 13.3772 6.66667C11.6648 6.66667 10.2093 7.25 9.01065 8.41667C7.812 9.58333 7.21267 11 7.21267 12.6667C7.21267 14.3333 7.812 15.75 9.01065 16.9167C10.2093 18.0833 11.6648 18.6667 13.3772 18.6667Z" fill="#E9EBF8"/>
</g>
</svg>
