<svg width="33" height="32" viewBox="0 0 33 32" fill="none" xmlns="http://www.w3.org/2000/svg">
<g id="shopping_cart_FILL0_wght400_GRAD0_opsz24 1">
<path id="Vector" d="M9.39746 29.3332C8.66413 29.3332 8.03635 29.0721 7.51413 28.5498C6.99191 28.0276 6.73079 27.3998 6.73079 26.6665C6.73079 25.9332 6.99191 25.3054 7.51413 24.7832C8.03635 24.2609 8.66413 23.9998 9.39746 23.9998C10.1308 23.9998 10.7586 24.2609 11.2808 24.7832C11.803 25.3054 12.0641 25.9332 12.0641 26.6665C12.0641 27.3998 11.803 28.0276 11.2808 28.5498C10.7586 29.0721 10.1308 29.3332 9.39746 29.3332ZM22.7308 29.3332C21.9975 29.3332 21.3697 29.0721 20.8475 28.5498C20.3252 28.0276 20.0641 27.3998 20.0641 26.6665C20.0641 25.9332 20.3252 25.3054 20.8475 24.7832C21.3697 24.2609 21.9975 23.9998 22.7308 23.9998C23.4641 23.9998 24.0919 24.2609 24.6141 24.7832C25.1364 25.3054 25.3975 25.9332 25.3975 26.6665C25.3975 27.3998 25.1364 28.0276 24.6141 28.5498C24.0919 29.0721 23.4641 29.3332 22.7308 29.3332ZM8.26413 7.99984L11.4641 14.6665H20.7975L24.4641 7.99984H8.26413ZM6.99746 5.33317H26.6641C27.1752 5.33317 27.5641 5.56095 27.8308 6.0165C28.0975 6.47206 28.1086 6.93317 27.8641 7.39984L23.1308 15.9332C22.8864 16.3776 22.5586 16.7221 22.1475 16.9665C21.7364 17.2109 21.2864 17.3332 20.7975 17.3332H10.8641L9.39746 19.9998H25.3975V22.6665H9.39746C8.39746 22.6665 7.64191 22.2276 7.13079 21.3498C6.61968 20.4721 6.59746 19.5998 7.06413 18.7332L8.86413 15.4665L4.06413 5.33317H1.39746V2.6665H5.73079L6.99746 5.33317Z" fill="black"/>
</g>
</svg>
