<svg width="20" height="21" viewBox="0 0 20 21" fill="none" xmlns="http://www.w3.org/2000/svg">
<g id="clarity:arrow-line" clip-path="url(#clip0_1687_7502)">
<path id="Vector" d="M8.6719 5.60091L3.33301 10.9676L8.6719 16.3342C8.72011 16.3976 8.78137 16.4498 8.85153 16.4874C8.92168 16.525 8.99909 16.547 9.07852 16.5521C9.15794 16.5572 9.23753 16.5451 9.31189 16.5167C9.38625 16.4884 9.45365 16.4444 9.50952 16.3877C9.56539 16.331 9.60844 16.263 9.63574 16.1882C9.66304 16.1135 9.67396 16.0337 9.66776 15.9544C9.66155 15.875 9.63838 15.7979 9.59979 15.7283C9.56121 15.6587 9.50812 15.5982 9.44412 15.5509L5.44967 11.5231H16.0775C16.2248 11.5231 16.3661 11.4646 16.4703 11.3604C16.5745 11.2562 16.633 11.1149 16.633 10.9676C16.633 10.8202 16.5745 10.6789 16.4703 10.5747C16.3661 10.4706 16.2248 10.412 16.0775 10.412H5.44967L9.44412 6.38424C9.548 6.27963 9.60606 6.13804 9.60554 5.99061C9.60502 5.84319 9.54595 5.70201 9.44134 5.59813C9.33673 5.49426 9.19513 5.43619 9.04771 5.43671C8.90029 5.43723 8.75911 5.4963 8.65523 5.60091H8.6719Z" fill="black"/>
</g>
<defs>
<clipPath id="clip0_1687_7502">
<rect width="20" height="20" fill="white" transform="matrix(0 -1 1 0 0 20.9678)"/>
</clipPath>
</defs>
</svg>
