<svg width="18" height="18" viewBox="0 0 18 18" fill="none" xmlns="http://www.w3.org/2000/svg">
<g id="favorite_FILL0_wght400_GRAD0_opsz24 1">
<path id="Vector" d="M9 15.75L7.9125 14.775C6.65 13.6375 5.60625 12.6563 4.78125 11.8313C3.95625 11.0063 3.3 10.2657 2.8125 9.60942C2.325 8.95317 1.98438 8.35005 1.79063 7.80005C1.59688 7.25005 1.5 6.68755 1.5 6.11255C1.5 4.93755 1.89375 3.9563 2.68125 3.1688C3.46875 2.3813 4.45 1.98755 5.625 1.98755C6.275 1.98755 6.89375 2.12505 7.48125 2.40005C8.06875 2.67505 8.575 3.06255 9 3.56255C9.425 3.06255 9.93125 2.67505 10.5188 2.40005C11.1063 2.12505 11.725 1.98755 12.375 1.98755C13.55 1.98755 14.5313 2.3813 15.3188 3.1688C16.1063 3.9563 16.5 4.93755 16.5 6.11255C16.5 6.68755 16.4031 7.25005 16.2094 7.80005C16.0156 8.35005 15.675 8.95317 15.1875 9.60942C14.7 10.2657 14.0438 11.0063 13.2188 11.8313C12.3938 12.6563 11.35 13.6375 10.0875 14.775L9 15.75ZM9 13.725C10.2 12.65 11.1875 11.7282 11.9625 10.9594C12.7375 10.1907 13.35 9.52192 13.8 8.95317C14.25 8.38442 14.5625 7.87817 14.7375 7.43442C14.9125 6.99067 15 6.55005 15 6.11255C15 5.36255 14.75 4.73755 14.25 4.23755C13.75 3.73755 13.125 3.48755 12.375 3.48755C11.7875 3.48755 11.2438 3.65317 10.7438 3.98442C10.2438 4.31567 9.9 4.73755 9.7125 5.25005H8.2875C8.1 4.73755 7.75625 4.31567 7.25625 3.98442C6.75625 3.65317 6.2125 3.48755 5.625 3.48755C4.875 3.48755 4.25 3.73755 3.75 4.23755C3.25 4.73755 3 5.36255 3 6.11255C3 6.55005 3.0875 6.99067 3.2625 7.43442C3.4375 7.87817 3.75 8.38442 4.2 8.95317C4.65 9.52192 5.2625 10.1907 6.0375 10.9594C6.8125 11.7282 7.8 12.65 9 13.725Z" fill="white"/>
</g>
</svg>
