<svg width="36" height="36" viewBox="0 0 36 36" fill="none" xmlns="http://www.w3.org/2000/svg">
<g id="fluent:payment-28-regular">
<path id="Vector" d="M23.4639 21.2142C23.2081 21.2142 22.9629 21.3158 22.782 21.4966C22.6012 21.6775 22.4996 21.9227 22.4996 22.1785C22.4996 22.4342 22.6012 22.6795 22.782 22.8603C22.9629 23.0412 23.2081 23.1428 23.4639 23.1428H27.9639C28.2196 23.1428 28.4649 23.0412 28.6457 22.8603C28.8266 22.6795 28.9282 22.4342 28.9282 22.1785C28.9282 21.9227 28.8266 21.6775 28.6457 21.4966C28.4649 21.3158 28.2196 21.2142 27.9639 21.2142H23.4639ZM2.57617 11.2499C2.57617 9.97117 3.08414 8.74482 3.98834 7.84063C4.89253 6.93644 6.11888 6.42847 7.3976 6.42847H28.6067C29.8855 6.42847 31.1118 6.93644 32.016 7.84063C32.9202 8.74482 33.4282 9.97117 33.4282 11.2499V24.7499C33.4282 26.0286 32.9202 27.255 32.016 28.1592C31.1118 29.0634 29.8855 29.5713 28.6067 29.5713H7.39889C6.12016 29.5713 4.89381 29.0634 3.98962 28.1592C3.08543 27.255 2.57746 26.0286 2.57746 24.7499L2.57617 11.2499ZM7.3976 8.35704C6.63037 8.35704 5.89456 8.66182 5.35204 9.20434C4.80953 9.74685 4.50474 10.4827 4.50474 11.2499V12.2142H31.4996V11.2499C31.4996 10.4827 31.1948 9.74685 30.6523 9.20434C30.1098 8.66182 29.374 8.35704 28.6067 8.35704H7.3976ZM4.50474 24.7499C4.50474 25.5171 4.80953 26.2529 5.35204 26.7955C5.89456 27.338 6.63037 27.6428 7.3976 27.6428H28.6067C29.374 27.6428 30.1098 27.338 30.6523 26.7955C31.1948 26.2529 31.4996 25.5171 31.4996 24.7499V14.1428H4.50603L4.50474 24.7499Z" fill="black"/>
</g>
</svg>
