<svg width="32" height="33" viewBox="0 0 32 33" fill="none" xmlns="http://www.w3.org/2000/svg">
<g id="instagram-fill">
<path id="Vector" d="M17.3708 2.78058C18.8713 2.78306 19.6317 2.79099 20.2888 2.81055L20.5476 2.81902C20.8465 2.82965 21.1415 2.84298 21.4971 2.85965C22.9159 2.92519 23.8837 3.14965 24.7337 3.47965C25.6125 3.81853 26.3548 4.27631 27.0959 5.01742C27.8359 5.75853 28.2937 6.50298 28.6337 7.37965C28.9625 8.22853 29.1871 9.19742 29.2537 10.6163C29.2696 10.9719 29.2824 11.2668 29.2929 11.5658L29.3013 11.8246C29.3208 12.4816 29.3297 13.2421 29.3325 14.7426L29.3336 15.7369C29.3337 15.8583 29.3337 15.9837 29.3337 16.113L29.3336 16.4891L29.3328 17.4834C29.3303 18.9839 29.3224 19.7443 29.3028 20.4014L29.2943 20.6602C29.2837 20.9591 29.2704 21.2541 29.2537 21.6097C29.1881 23.0285 28.9625 23.9963 28.6337 24.8463C28.2948 25.7251 27.8359 26.4674 27.0959 27.2085C26.3548 27.9485 25.6092 28.4063 24.7337 28.7463C23.8837 29.0751 22.9159 29.2997 21.4971 29.3663C21.1415 29.3822 20.8465 29.395 20.5476 29.4055L20.2888 29.4139C19.6317 29.4334 18.8713 29.4423 17.3708 29.4451L16.3765 29.4462C16.2551 29.4463 16.1297 29.4463 16.0004 29.4463L15.6243 29.4462L14.63 29.4454C13.1295 29.4429 12.369 29.435 11.712 29.4154L11.4532 29.4069C11.1542 29.3963 10.8592 29.383 10.5037 29.3663C9.08481 29.3007 8.11814 29.0751 7.26704 28.7463C6.38925 28.4074 5.64592 27.9485 4.90481 27.2085C4.1637 26.4674 3.70704 25.7218 3.36704 24.8463C3.03704 23.9963 2.8137 23.0285 2.74704 21.6097C2.7312 21.2541 2.71828 20.9591 2.70781 20.6602L2.69942 20.4014C2.67992 19.7443 2.67102 18.9839 2.66814 17.4834L2.66797 14.7426C2.67045 13.2421 2.67838 12.4816 2.69794 11.8246L2.70641 11.5658C2.71704 11.2668 2.73037 10.9719 2.74704 10.6163C2.81258 9.19631 3.03704 8.22965 3.36704 7.37965C3.70592 6.50186 4.1637 5.75853 4.90481 5.01742C5.64592 4.27631 6.39037 3.81965 7.26704 3.47965C8.11704 3.14965 9.0837 2.92631 10.5037 2.85965C10.8592 2.84381 11.1542 2.83089 11.4532 2.82042L11.712 2.81203C12.369 2.79253 13.1295 2.78363 14.63 2.78075L17.3708 2.78058ZM16.0004 9.44631C12.3165 9.44631 9.3337 12.4324 9.3337 16.113C9.3337 19.7969 12.3197 22.7797 16.0004 22.7797C19.6843 22.7797 22.6671 19.7935 22.6671 16.113C22.6671 12.4291 19.6809 9.44631 16.0004 9.44631ZM16.0004 12.113C18.2096 12.113 20.0004 13.9031 20.0004 16.113C20.0004 18.3222 18.2101 20.113 16.0004 20.113C13.7912 20.113 12.0004 18.3227 12.0004 16.113C12.0004 13.9038 13.7905 12.113 16.0004 12.113ZM23.0004 7.44631C22.0813 7.44631 21.3337 8.19285 21.3337 9.11185C21.3337 10.0308 22.0803 10.7785 23.0004 10.7785C23.9193 10.7785 24.6671 10.032 24.6671 9.11185C24.6671 8.19285 23.9181 7.44515 23.0004 7.44631Z" fill="white"/>
</g>
</svg>
