<svg width="21" height="20" viewBox="0 0 21 20" fill="none" xmlns="http://www.w3.org/2000/svg">
<g id="linkedin-box-fill">
<path id="Vector" d="M16.3668 15.8695H13.8987V12.0021C13.8987 11.0799 13.88 9.89314 12.6126 9.89314C11.3258 9.89314 11.1293 10.8967 11.1293 11.9341V15.8695H8.6612V7.91675H11.032V9.00073H11.064C11.3953 8.37573 12.2008 7.71605 13.4043 7.71605C15.905 7.71605 16.3675 9.36193 16.3675 11.5042L16.3668 15.8695ZM5.87373 6.82855C5.07929 6.82855 4.44109 6.1855 4.44109 5.39453C4.44109 4.60425 5.07998 3.96189 5.87373 3.96189C6.6654 3.96189 7.30706 4.60425 7.30706 5.39453C7.30706 6.1855 6.6647 6.82855 5.87373 6.82855ZM7.11123 15.8695H4.63623V7.91675H7.11123V15.8695ZM17.6015 1.66675H3.39734C2.71748 1.66675 2.16748 2.20425 2.16748 2.86744V17.1328C2.16748 17.7966 2.71748 18.3334 3.39734 18.3334H17.5994C18.2786 18.3334 18.8342 17.7966 18.8342 17.1328V2.86744C18.8342 2.20425 18.2786 1.66675 17.5994 1.66675H17.6015Z" fill="#E66B66"/>
</g>
</svg>
