<svg width="32" height="33" viewBox="0 0 32 33" fill="none" xmlns="http://www.w3.org/2000/svg">
<g id="linkedin-box-fill">
<path id="Vector" d="M25.3868 25.5025H21.4379V19.3146C21.4379 17.8391 21.408 15.9402 19.3801 15.9402C17.3213 15.9402 17.0068 17.5459 17.0068 19.2057V25.5025H13.0579V12.778H16.8513V14.5124H16.9024C17.4324 13.5124 18.7213 12.4569 20.6468 12.4569C24.648 12.4569 25.388 15.0903 25.388 18.518L25.3868 25.5025ZM8.59797 11.0369C7.32686 11.0369 6.30575 10.008 6.30575 8.74246C6.30575 7.47801 7.32797 6.45024 8.59797 6.45024C9.86463 6.45024 10.8913 7.47801 10.8913 8.74246C10.8913 10.008 9.86352 11.0369 8.59797 11.0369ZM10.578 25.5025H6.61797V12.778H10.578V25.5025ZM27.3624 2.77802H4.63575C3.54797 2.77802 2.66797 3.63802 2.66797 4.69913V27.5236C2.66797 28.5857 3.54797 29.4447 4.63575 29.4447H27.3591C28.4458 29.4447 29.3347 28.5857 29.3347 27.5236V4.69913C29.3347 3.63802 28.4458 2.77802 27.3591 2.77802H27.3624Z" fill="white"/>
</g>
</svg>
