<?xml version="1.0" encoding="utf-8"?>
<!-- Generator: Adobe Illustrator 27.0.0, SVG Export Plug-In . SVG Version: 6.00 Build 0)  -->
<svg version="1.1" id="Layer_1" xmlns="http://www.w3.org/2000/svg" xmlns:xlink="http://www.w3.org/1999/xlink" x="0px" y="0px"
	 viewBox="0 0 1000 500" style="enable-background:new 0 0 1000 500;" xml:space="preserve">
<style type="text/css">
	.st0{fill:#E66B66;}
	.st1{fill:#A22634;}
	.st2{font-family:'Montserrat-Medium';}
	.st3{font-size:117.8759px;}
	.st4{font-family:'Montserrat-Bold';}
	.st5{font-size:138.7508px;}
</style>
<g>
	<g>
		<path class="st0" d="M737.1,195.4c0.5,1.7,1.2,3.4,1.8,5c0.8-3.8,3.6-7.2,6.5-9.6c4.2-3.5,9.2-5.6,13.7-8.7
			c3.9-2.7,6.9-6.2,8.5-10.7c1.5-4.1,1.8-8.7,0.3-12.8c-2.7-7.6-11.8-12.6-19.6-10c-9.3,3.1-12.3,15.1-13.2,23.7
			c-0.6,5.2-0.5,10.4,0.3,15.6C735.8,190.4,736.3,192.9,737.1,195.4z"/>
		<path class="st0" d="M717.3,218.4c0.6-3.7,3.9-6.9,6.4-9.5c3-3,7.4-9,3.2-12.8c-1.5-1.4-3.8-1.8-5.8-1.4c-2.2,0.4-4,1.9-5.1,3.8
			c-2.2,3.7-1.8,7.9-0.9,11.9C715.7,213.2,716.5,215.8,717.3,218.4z"/>
		<path class="st1" d="M800.9,172.9c-9,7.3-18.1,14.5-26.9,21.9c-4.4,3.7-8.8,7.5-13.1,11.4c-4.3,3.8-8.5,7.7-12.9,11.3
			c-8.7,7.1-18.2,13.2-28.5,18.1c-4.7,2.2-9.6,4.2-14.8,4.5c-4.5,0.2-8.6-1.1-12.2-3.9c-5.8-4.4-10.5-12.6-18.4-13.3
			c-4.9-0.4-9.2,2.3-13.4,4.3c-4.3,2-8.6,3.1-13.3,2c-10.5-2.3-16.9-11.8-23.2-19.7c-11.6-14.6-23.7-28.8-35.4-43.3
			c15.7,21.9,31.4,43.8,47.1,65.7c8.4,11.7,16.7,23.3,25.1,35c3.9,5.4,7.7,11,11.7,16.2c3.4,4.3,7.1,8.5,11.5,11.8
			c4.4,3.2,9.5,5.3,15,5.1c6-0.2,11.6-3.3,16-7.3c4.8-4.4,8.3-10,11.6-15.6c3.2-5.4,6.4-10.8,9.8-16.2c13.4-21.5,28.3-42,44.5-61.5
			c13.3-15.9,27.4-31.3,42.5-45.6c-3,2.6-5.9,5.3-9,7.9C809.9,165.5,805.4,169.2,800.9,172.9z"/>
		<path d="M740.9,267.9c-8.5,10.7-17.1,21.3-25.8,31.8c-2,2.4-3.9,5.2-6.8,6.6c-2.5,1.2-5,1.1-7.7,0.8c-1.6-0.1-3.2-0.2-4.8-0.1
			c-1.3,0.1-2.5,0.4-3.8,0.4c-2.7,0.1-5-1.1-7-2.8c-2.4-2-4.4-4.5-6.2-6.9c-2-2.7-3.9-5.5-5.9-8.2c-4.8-6.8-10-13.3-15.1-19.9
			c-8.9-11.6-17.8-23.1-26.7-34.7c4.1,6.5,8,13.2,12,19.8c10.3,16.9,20.6,33.8,31,50.6c8.1,13.1,18.5,27.9,18.3,44
			c0,0.3,0,0.6,0,0.9c0,0.6,0.1,1.3,0.1,1.9c0,0.5,0,1.1,0,1.6c0.1,0,0.1,0,0.2,0c0.1,0,0.2,0,0.3,0c0.3,0,0.7,0.1,1,0.1
			c2,0.2,4,0.2,6,0.2c0.6,0,1.3,0,1.9,0c0.3,0,0.6,0,0.9-0.1c0,0,0.1,0,0.1,0c0,0,0-0.1,0-0.1c0-0.5,0-0.9,0-1.4c0,0,0,0,0,0
			c0-0.5,0-1-0.1-1.5c0-0.1,0-0.1,0-0.2c-0.2-0.6-0.2-1.3-0.2-2c0-0.2,0-0.5,0.1-0.7c0.2-7.8,2.8-15.4,6.4-22.4
			c4.1-8.2,9.2-15.9,14-23.8c5.2-8.4,10.3-16.9,15.5-25.3c5.2-8.4,10.4-16.8,15.5-25.3c0.9-1.5,1.8-3,2.7-4.5
			c-1.5,2.1-3.1,4.2-4.7,6.3C748.6,258.1,744.7,263,740.9,267.9z"/>
		<path d="M770,226.2c-0.9,1.2-1.7,2.5-2.5,3.8c-4,5.7-7.8,11.5-11.9,17.1c-3.9,5.4-8,10.7-12.2,15.9c-8.4,10.6-16.9,21.2-25.6,31.6
			c-1.8,2.2-3.7,4.4-5.5,6.5c-2.2,2.5-4.5,4.5-8,4.7c-2.8,0.1-5.6-0.5-8.5-0.3c-2.4,0.2-4.8,0.9-7.1-0.1c-2.8-1.3-4.9-3.7-6.8-6
			c-2.2-2.6-4.2-5.4-6.2-8.2c-4.5-6.2-9.3-12.1-14-18.2c-10.8-13.9-21.7-27.7-32.5-41.5c-0.5-0.7-1-1.3-1.6-2
			c-0.8-1.1-1.5-2.3-2.2-3.4c-0.4-0.6-1.3-0.1-0.9,0.5c4.6,8.6,10,16.8,15,25.1c5,8.2,10,16.4,15,24.6c5,8.2,10,16.4,15.1,24.5
			c4.8,7.8,9.8,15.5,14.1,23.5c4.4,8.3,7.7,17.3,7.2,26.7c0,0.2,0,0.4,0,0.5c-0.1,1-0.4,2.7,0.8,3.2c0.5,0.2,1.1,0.2,1.7,0.2
			c0.6,0,1.2,0.1,1.9,0.1c1.1,0.1,2.2,0.1,3.4,0.1c1,0,1.9,0,2.9,0c0.7,0,1.4,0,2-0.2c1-0.4,0.9-1.5,0.8-2.5c0-0.1,0.1-0.2,0.1-0.3
			c0-0.6,0-1.1,0-1.7c0-0.4,0.1-0.8,0.1-1.2c0-0.4,0-0.9-0.1-1.2c0,0,0-0.1,0-0.1c0.6-16.2,11.2-30.5,19.4-43.9
			c10.1-16.5,20.2-33,30.3-49.5c5.7-9.2,11.7-18.4,16.8-28C771.3,226.2,770.4,225.7,770,226.2z M754.3,251.4
			c-5.2,8.4-10.3,16.9-15.5,25.3c-5.2,8.4-10.3,16.9-15.5,25.3c-4.8,7.8-9.8,15.5-14,23.8c-3.5,7-6.2,14.5-6.4,22.4
			c-0.1,0.2-0.1,0.5-0.1,0.7c0,0.6,0,1.3,0.2,2c0,0.1,0,0.1,0,0.2c0,0.5,0,1,0.1,1.5c0,0,0,0,0,0c0,0.5-0.1,1,0,1.4c0,0,0,0,0,0.1
			c0,0-0.1,0-0.1,0c-0.3,0.1-0.6,0.1-0.9,0.1c-0.6,0-1.3,0-1.9,0c-2,0-4,0-6-0.2c-0.3,0-0.7-0.1-1-0.1c-0.1,0-0.2,0-0.3,0
			c-0.1,0-0.1,0-0.2,0c0.1-0.5,0-1.1,0-1.6c0-0.6-0.1-1.3-0.1-1.9c0-0.3,0-0.6,0-0.9c0.2-16.1-10.2-30.8-18.3-44
			c-10.4-16.8-20.7-33.7-31-50.6c-4-6.6-7.9-13.2-12-19.8c8.8,11.6,17.8,23.2,26.7,34.7c5.1,6.6,10.3,13.1,15.1,19.9
			c1.9,2.8,3.8,5.5,5.9,8.2c1.9,2.5,3.8,5,6.2,6.9c2,1.7,4.3,2.9,7,2.8c1.3-0.1,2.5-0.3,3.8-0.4c1.6-0.1,3.2-0.1,4.8,0.1
			c2.6,0.2,5.2,0.4,7.7-0.8c2.9-1.4,4.8-4.2,6.8-6.6c8.7-10.5,17.3-21.1,25.8-31.8c3.9-4.9,7.7-9.8,11.5-14.7
			c1.6-2.1,3.2-4.2,4.7-6.3C756.2,248.4,755.2,249.9,754.3,251.4z"/>
		<path d="M833.7,144.6c-2.4,2.1-4.8,4.3-7.2,6.5c-6.3,5.3-12.8,10.4-19.2,15.6c-8.8,7.2-17.6,14.2-26.3,21.5
			c-17.3,14.5-33.5,30.8-53.2,41.9c-4.9,2.7-9.9,5.4-15.2,7.2c-5.1,1.8-10.8,2.7-15.8,0.4c-7-3.2-10.8-10.6-17.5-14.1
			c-3.5-1.8-7.3-2-11-0.8c-4.3,1.4-8.1,4.1-12.5,5.4c-11,3.3-20.2-5.5-26.5-13.4c-7.2-9-14.3-18-21.7-26.9
			c-7.4-8.9-14.8-17.8-22-26.8c-1.4-1.8-2.9-3.6-4.3-5.4c-0.7-1-1.4-1.9-2.1-2.9c-0.3-0.4-0.9,0-0.6,0.4c17,24,34.1,47.8,51.2,71.7
			c8.5,11.9,16.9,23.8,25.4,35.7c4.2,5.9,8.5,11.9,12.7,17.8c3.2,4.5,6.6,8.9,10.5,12.8c3.7,3.7,8,7,13,8.6
			c5.2,1.8,10.8,1.5,15.8-0.6c11.6-4.9,17.6-16.8,23.7-27c13.1-22.2,27.9-43.5,44-63.7c16.2-20.2,33.9-39.1,52.5-57.1
			c2.3-2.2,4.5-4.4,6.8-6.5C834.3,144.7,833.9,144.3,833.7,144.6z M780.9,199.5c-16.2,19.5-31,40-44.5,61.5
			c-3.3,5.3-6.5,10.8-9.8,16.2c-3.3,5.6-6.8,11.2-11.6,15.6c-4.4,4-10,7-16,7.3c-5.5,0.2-10.6-2-15-5.1c-4.4-3.2-8.1-7.4-11.5-11.8
			c-4.1-5.3-7.9-10.8-11.7-16.2c-8.3-11.7-16.7-23.3-25.1-35c-15.7-21.9-31.4-43.8-47.1-65.7c11.7,14.5,23.8,28.7,35.4,43.3
			c6.3,7.9,12.7,17.4,23.2,19.7c4.7,1.1,9,0,13.3-2c4.2-2,8.6-4.7,13.4-4.3c7.9,0.7,12.7,8.9,18.4,13.3c3.6,2.7,7.7,4.1,12.2,3.9
			c5.2-0.3,10.2-2.3,14.8-4.5c10.2-4.8,19.7-10.9,28.5-18.1c4.4-3.6,8.6-7.6,12.9-11.3c4.3-3.8,8.7-7.6,13.1-11.4
			c8.9-7.4,17.9-14.6,26.9-21.9c4.5-3.7,9.1-7.3,13.6-11c3.1-2.5,6-5.2,9-7.9C808.3,168.2,794.2,183.6,780.9,199.5z"/>
		<path d="M735.8,194.6c0.7,2.6,1.5,5.2,2.8,7.6c0,0.3,0,0.6,0,1c0,0.5,0.6,0.5,0.7,0.1c0.2,0,0.4-0.1,0.3-0.3
			c0-0.2-0.1-0.4-0.2-0.5c0.7-4.8,3.7-8.7,7.6-11.6c4.2-3.1,9.1-5.2,13.3-8.3c7.1-5.3,11.3-14.7,8.6-23.4
			c-2.4-7.7-10.7-13.1-18.8-11.8c-9.6,1.6-13.7,12.1-15.4,20.5c-1.2,5.9-1.4,12-0.7,18.1C734.5,188.8,735,191.7,735.8,194.6z
			 M735,172.3c1-8.6,4-20.5,13.2-23.7c7.8-2.7,16.9,2.4,19.6,10c1.4,4.1,1.2,8.7-0.3,12.8c-1.6,4.5-4.7,8-8.5,10.7
			c-4.4,3.1-9.5,5.2-13.7,8.7c-2.9,2.4-5.7,5.8-6.5,9.6c-0.6-1.7-1.3-3.3-1.8-5c-0.7-2.4-1.3-5-1.7-7.5
			C734.5,182.8,734.4,177.5,735,172.3z"/>
		<path d="M715.6,215.3c0.5,1.7,0.9,3.4,1.6,5c0,0.3,0.1,0.7,0.2,1c0.2,0.6,1,0.3,0.9-0.2c-1-5.8,4.6-9.5,7.8-13.5
			c2.6-3.3,5.1-8.7,1.2-12.1c-3-2.6-7.8-2-10.5,0.7c-3,3.1-3.6,7.6-2.9,11.7C714.3,210.5,714.9,212.9,715.6,215.3z M716,198.6
			c1.1-1.9,2.9-3.4,5.1-3.8c2-0.4,4.2,0,5.8,1.4c4.2,3.8-0.2,9.8-3.2,12.8c-2.5,2.5-5.8,5.7-6.4,9.5c-0.8-2.6-1.6-5.2-2.2-7.9
			C714.2,206.5,713.7,202.3,716,198.6z"/>
	</g>
	<text transform="matrix(1 0 0 1 6.8643 315.6074)" class="st2 st3">Liquor</text>
	<text transform="matrix(1 0 0 1 412.4707 318.4072)" class="st4 st5">HA    EN</text>
</g>
</svg>
