<?xml version="1.0" encoding="utf-8"?>
<!-- Generator: Adobe Illustrator 27.0.0, SVG Export Plug-In . SVG Version: 6.00 Build 0)  -->
<svg version="1.1" id="Layer_1" xmlns="http://www.w3.org/2000/svg" xmlns:xlink="http://www.w3.org/1999/xlink" x="0px" y="0px"
	 viewBox="0 0 31.9 32" style="enable-background:new 0 0 31.9 32;" xml:space="preserve">
<style type="text/css">
	.st0{fill:#E66B66;}
	.st1{fill:#A22634;}
</style>
<g>
	<path class="st0" d="M19.8,9.2c0.1,0.2,0.1,0.4,0.2,0.6c0.1-0.5,0.4-0.9,0.8-1.2c0.5-0.4,1.2-0.7,1.7-1.1c0.5-0.3,0.9-0.8,1.1-1.3
		c0.2-0.5,0.2-1.1,0-1.6c-0.3-1-1.5-1.6-2.4-1.2c-1.2,0.4-1.5,1.9-1.7,2.9c-0.1,0.6-0.1,1.3,0,1.9C19.6,8.6,19.7,8.9,19.8,9.2z"/>
	<path class="st0" d="M17.3,12.1c0.1-0.5,0.5-0.9,0.8-1.2c0.4-0.4,0.9-1.1,0.4-1.6c-0.2-0.2-0.5-0.2-0.7-0.2
		c-0.3,0.1-0.5,0.2-0.6,0.5c-0.3,0.5-0.2,1-0.1,1.5C17.1,11.4,17.2,11.7,17.3,12.1z"/>
	<path class="st1" d="M27.7,6.4c-1.1,0.9-2.3,1.8-3.4,2.7c-0.6,0.5-1.1,0.9-1.6,1.4c-0.5,0.5-1.1,1-1.6,1.4
		c-1.1,0.9-2.3,1.7-3.5,2.2c-0.6,0.3-1.2,0.5-1.9,0.6c-0.6,0-1.1-0.1-1.5-0.5c-0.7-0.6-1.3-1.6-2.3-1.7c-0.6-0.1-1.1,0.3-1.7,0.5
		c-0.5,0.3-1.1,0.4-1.7,0.3c-1.3-0.3-2.1-1.5-2.9-2.5c-1.4-1.8-3-3.6-4.4-5.4c2,2.7,3.9,5.5,5.9,8.2c1,1.5,2.1,2.9,3.1,4.4
		c0.5,0.7,1,1.4,1.5,2c0.4,0.5,0.9,1.1,1.4,1.5c0.5,0.4,1.2,0.7,1.9,0.6c0.8,0,1.4-0.4,2-0.9c0.6-0.5,1-1.3,1.4-1.9
		c0.4-0.7,0.8-1.3,1.2-2c1.7-2.7,3.5-5.2,5.5-7.7c1.7-2,3.4-3.9,5.3-5.7c-0.4,0.3-0.7,0.7-1.1,1C28.9,5.5,28.3,5.9,27.7,6.4z"/>
	<path d="M20.3,18.2c-1.1,1.3-2.1,2.7-3.2,4c-0.3,0.3-0.5,0.6-0.9,0.8c-0.3,0.1-0.6,0.1-1,0.1c-0.2,0-0.4,0-0.6,0
		c-0.2,0-0.3,0-0.5,0.1c-0.3,0-0.6-0.1-0.9-0.3c-0.3-0.2-0.5-0.6-0.8-0.9c-0.3-0.3-0.5-0.7-0.7-1c-0.6-0.8-1.3-1.7-1.9-2.5
		c-1.1-1.4-2.2-2.9-3.3-4.3c0.5,0.8,1,1.6,1.5,2.5c1.3,2.1,2.6,4.2,3.9,6.3c1,1.6,2.3,3.5,2.3,5.5c0,0,0,0.1,0,0.1
		c0,0.1,0,0.2,0,0.2c0,0.1,0,0.1,0,0.2c0,0,0,0,0,0c0,0,0,0,0,0c0,0,0.1,0,0.1,0c0.2,0,0.5,0,0.7,0c0.1,0,0.2,0,0.2,0
		c0,0,0.1,0,0.1,0c0,0,0,0,0,0c0,0,0,0,0,0c0-0.1,0-0.1,0-0.2c0,0,0,0,0,0c0-0.1,0-0.1,0-0.2c0,0,0,0,0,0c0-0.1,0-0.2,0-0.2
		c0,0,0-0.1,0-0.1c0-1,0.4-1.9,0.8-2.8c0.5-1,1.1-2,1.7-3c0.6-1.1,1.3-2.1,1.9-3.2c0.6-1,1.3-2.1,1.9-3.1c0.1-0.2,0.2-0.4,0.3-0.6
		c-0.2,0.3-0.4,0.5-0.6,0.8C21.2,17,20.7,17.6,20.3,18.2z"/>
	<path d="M23.9,13c-0.1,0.2-0.2,0.3-0.3,0.5c-0.5,0.7-1,1.4-1.5,2.1c-0.5,0.7-1,1.3-1.5,2c-1,1.3-2.1,2.6-3.2,3.9
		c-0.2,0.3-0.5,0.5-0.7,0.8c-0.3,0.3-0.6,0.6-1,0.6c-0.4,0-0.7-0.1-1.1,0c-0.3,0-0.6,0.1-0.9,0c-0.3-0.2-0.6-0.5-0.9-0.7
		c-0.3-0.3-0.5-0.7-0.8-1c-0.6-0.8-1.2-1.5-1.7-2.3c-1.3-1.7-2.7-3.4-4-5.2c-0.1-0.1-0.1-0.2-0.2-0.2C6.1,13.3,6,13.2,5.9,13
		c0-0.1-0.2,0-0.1,0.1c0.6,1.1,1.2,2.1,1.9,3.1c0.6,1,1.2,2,1.9,3.1c0.6,1,1.3,2,1.9,3.1c0.6,1,1.2,1.9,1.8,2.9c0.5,1,1,2.2,0.9,3.3
		c0,0,0,0,0,0.1c0,0.1,0,0.3,0.1,0.4c0.1,0,0.1,0,0.2,0c0.1,0,0.2,0,0.2,0c0.1,0,0.3,0,0.4,0c0.1,0,0.2,0,0.4,0c0.1,0,0.2,0,0.3,0
		c0.1,0,0.1-0.2,0.1-0.3c0,0,0,0,0,0c0-0.1,0-0.1,0-0.2c0-0.1,0-0.1,0-0.2c0,0,0-0.1,0-0.2c0,0,0,0,0,0c0.1-2,1.4-3.8,2.4-5.5
		c1.3-2.1,2.5-4.1,3.8-6.2c0.7-1.2,1.5-2.3,2.1-3.5C24.1,13,23.9,13,23.9,13z M21.9,16.2c-0.6,1.1-1.3,2.1-1.9,3.1
		c-0.6,1-1.3,2.1-1.9,3.2c-0.6,1-1.2,1.9-1.7,3c-0.4,0.9-0.8,1.8-0.8,2.8c0,0,0,0.1,0,0.1c0,0.1,0,0.2,0,0.2c0,0,0,0,0,0
		c0,0.1,0,0.1,0,0.2c0,0,0,0,0,0c0,0.1,0,0.1,0,0.2c0,0,0,0,0,0c0,0,0,0,0,0c0,0-0.1,0-0.1,0c-0.1,0-0.2,0-0.2,0c-0.2,0-0.5,0-0.7,0
		c0,0-0.1,0-0.1,0c0,0,0,0,0,0c0,0,0,0,0,0c0-0.1,0-0.1,0-0.2c0-0.1,0-0.2,0-0.2c0,0,0-0.1,0-0.1c0-2-1.3-3.8-2.3-5.5
		c-1.3-2.1-2.6-4.2-3.9-6.3c-0.5-0.8-1-1.7-1.5-2.5c1.1,1.4,2.2,2.9,3.3,4.3c0.6,0.8,1.3,1.6,1.9,2.5c0.2,0.3,0.5,0.7,0.7,1
		c0.2,0.3,0.5,0.6,0.8,0.9c0.3,0.2,0.5,0.4,0.9,0.3c0.2,0,0.3,0,0.5-0.1c0.2,0,0.4,0,0.6,0c0.3,0,0.7,0,1-0.1
		c0.4-0.2,0.6-0.5,0.9-0.8c1.1-1.3,2.2-2.6,3.2-4c0.5-0.6,1-1.2,1.4-1.8c0.2-0.3,0.4-0.5,0.6-0.8C22.2,15.8,22,16,21.9,16.2z"/>
	<path d="M31.8,2.9c-0.3,0.3-0.6,0.5-0.9,0.8c-0.8,0.7-1.6,1.3-2.4,1.9c-1.1,0.9-2.2,1.8-3.3,2.7c-2.2,1.8-4.2,3.8-6.6,5.2
		c-0.6,0.3-1.2,0.7-1.9,0.9c-0.6,0.2-1.3,0.3-2,0c-0.9-0.4-1.3-1.3-2.2-1.8c-0.4-0.2-0.9-0.2-1.4-0.1c-0.5,0.2-1,0.5-1.6,0.7
		c-1.4,0.4-2.5-0.7-3.3-1.7c-0.9-1.1-1.8-2.2-2.7-3.3C2.7,7.1,1.8,6,0.9,4.9C0.7,4.7,0.5,4.5,0.3,4.2C0.3,4.1,0.2,4,0.1,3.9
		c0,0-0.1,0-0.1,0c2.1,3,4.2,6,6.4,8.9c1.1,1.5,2.1,3,3.2,4.4c0.5,0.7,1.1,1.5,1.6,2.2c0.4,0.6,0.8,1.1,1.3,1.6
		c0.5,0.5,1,0.9,1.6,1.1c0.6,0.2,1.3,0.2,2-0.1c1.4-0.6,2.2-2.1,3-3.4c1.6-2.8,3.5-5.4,5.5-7.9c2-2.5,4.2-4.9,6.5-7.1
		C31.3,3.4,31.6,3.2,31.8,2.9C31.9,2.9,31.9,2.8,31.8,2.9z M25.2,9.7c-2,2.4-3.9,5-5.5,7.7c-0.4,0.7-0.8,1.3-1.2,2
		c-0.4,0.7-0.8,1.4-1.4,1.9c-0.5,0.5-1.2,0.9-2,0.9c-0.7,0-1.3-0.2-1.9-0.6c-0.6-0.4-1-0.9-1.4-1.5c-0.5-0.7-1-1.3-1.5-2
		c-1-1.5-2.1-2.9-3.1-4.4c-2-2.7-3.9-5.5-5.9-8.2c1.5,1.8,3,3.6,4.4,5.4c0.8,1,1.6,2.2,2.9,2.5c0.6,0.1,1.1,0,1.7-0.3
		c0.5-0.2,1.1-0.6,1.7-0.5c1,0.1,1.6,1.1,2.3,1.7c0.4,0.3,1,0.5,1.5,0.5c0.7,0,1.3-0.3,1.9-0.6c1.3-0.6,2.5-1.4,3.5-2.2
		c0.6-0.5,1.1-0.9,1.6-1.4c0.5-0.5,1.1-1,1.6-1.4c1.1-0.9,2.2-1.8,3.4-2.7c0.6-0.5,1.1-0.9,1.7-1.4c0.4-0.3,0.7-0.6,1.1-1
		C28.7,5.8,26.9,7.7,25.2,9.7z"/>
	<path d="M19.6,9.1c0.1,0.3,0.2,0.6,0.4,0.9c0,0,0,0.1,0,0.1c0,0.1,0.1,0.1,0.1,0c0,0,0,0,0,0c0,0,0,0,0-0.1C20.2,9.5,20.5,9,21,8.6
		c0.5-0.4,1.1-0.6,1.7-1c0.9-0.7,1.4-1.8,1.1-2.9c-0.3-1-1.3-1.6-2.3-1.5c-1.2,0.2-1.7,1.5-1.9,2.6c-0.1,0.7-0.2,1.5-0.1,2.2
		C19.5,8.4,19.5,8.7,19.6,9.1z M19.5,6.3c0.1-1.1,0.5-2.6,1.7-2.9c1-0.3,2.1,0.3,2.4,1.2c0.2,0.5,0.1,1.1,0,1.6
		c-0.2,0.6-0.6,1-1.1,1.3c-0.6,0.4-1.2,0.6-1.7,1.1c-0.4,0.3-0.7,0.7-0.8,1.2c-0.1-0.2-0.2-0.4-0.2-0.6c-0.1-0.3-0.2-0.6-0.2-0.9
		C19.5,7.6,19.5,7,19.5,6.3z"/>
	<path d="M17.1,11.7c0.1,0.2,0.1,0.4,0.2,0.6c0,0,0,0.1,0,0.1c0,0.1,0.1,0,0.1,0c-0.1-0.7,0.6-1.2,1-1.7c0.3-0.4,0.6-1.1,0.1-1.5
		c-0.4-0.3-1-0.2-1.3,0.1c-0.4,0.4-0.4,1-0.4,1.5C16.9,11.1,17,11.4,17.1,11.7z M17.2,9.6c0.1-0.2,0.4-0.4,0.6-0.5
		c0.2,0,0.5,0,0.7,0.2c0.5,0.5,0,1.2-0.4,1.6c-0.3,0.3-0.7,0.7-0.8,1.2c-0.1-0.3-0.2-0.7-0.3-1C16.9,10.6,16.9,10.1,17.2,9.6z"/>
</g>
</svg>
