<svg width="65" height="65" viewBox="0 0 65 65" fill="none" xmlns="http://www.w3.org/2000/svg">
<g id="Group 49429">
<path id="Rectangle 7" d="M60.4695 0.757324H4.46948C2.26034 0.757324 0.469482 2.54819 0.469482 4.75732V60.7573C0.469482 62.9665 2.26034 64.7573 4.46948 64.7573H60.4695C62.6786 64.7573 64.4695 62.9665 64.4695 60.7573V4.75732C64.4695 2.54819 62.6786 0.757324 60.4695 0.757324Z" fill="#AD504D"/>
<g id="Stockholm-icons-/-General-/-User">
<path id="Mask" d="M32.4678 31.2552C31.2813 31.2552 30.1214 30.9034 29.1348 30.2442C28.1482 29.585 27.3793 28.648 26.9252 27.5518C26.4711 26.4555 26.3523 25.2493 26.5838 24.0855C26.8153 22.9218 27.3866 21.8528 28.2257 21.0138C29.0647 20.1747 30.1337 19.6034 31.2974 19.3719C32.4612 19.1404 33.6674 19.2592 34.7637 19.7133C35.8599 20.1673 36.7969 20.9363 37.4561 21.9229C38.1153 22.9095 38.4672 24.0694 38.4672 25.2559C38.4672 26.847 37.8351 28.373 36.71 29.4981C35.5849 30.6232 34.059 31.2552 32.4678 31.2552Z" fill="#821E2A"/>
<path id="Mask-Copy" d="M18.9695 45.0529C19.5516 37.8944 25.3582 34.2549 32.4436 34.2549C39.6244 34.2549 45.5253 37.6947 45.9644 45.0539C45.9916 45.2111 45.9818 45.3725 45.936 45.5253C45.8901 45.6782 45.8094 45.8183 45.7002 45.9346C45.5909 46.0509 45.4562 46.1403 45.3065 46.1956C45.1569 46.2509 44.9964 46.2708 44.8378 46.2535H20.0606C19.7913 46.1634 19.5495 46.0057 19.3585 45.7955C19.1675 45.5853 19.0335 45.3296 18.9695 45.0529Z" fill="#FBE9E8"/>
</g>
</g>
</svg>
