<svg width="18" height="18" viewBox="0 0 18 18" fill="none" xmlns="http://www.w3.org/2000/svg">
<g id="shopping_cart_FILL0_wght400_GRAD0_opsz24 1">
<path id="Vector" d="M5.25 16.5C4.8375 16.5 4.48438 16.3531 4.19063 16.0594C3.89688 15.7656 3.75 15.4125 3.75 15C3.75 14.5875 3.89688 14.2344 4.19063 13.9406C4.48438 13.6469 4.8375 13.5 5.25 13.5C5.6625 13.5 6.01563 13.6469 6.30938 13.9406C6.60313 14.2344 6.75 14.5875 6.75 15C6.75 15.4125 6.60313 15.7656 6.30938 16.0594C6.01563 16.3531 5.6625 16.5 5.25 16.5ZM12.75 16.5C12.3375 16.5 11.9844 16.3531 11.6906 16.0594C11.3969 15.7656 11.25 15.4125 11.25 15C11.25 14.5875 11.3969 14.2344 11.6906 13.9406C11.9844 13.6469 12.3375 13.5 12.75 13.5C13.1625 13.5 13.5156 13.6469 13.8094 13.9406C14.1031 14.2344 14.25 14.5875 14.25 15C14.25 15.4125 14.1031 15.7656 13.8094 16.0594C13.5156 16.3531 13.1625 16.5 12.75 16.5ZM4.6125 4.5L6.4125 8.25H11.6625L13.725 4.5H4.6125ZM3.9 3H14.9625C15.25 3 15.4688 3.12813 15.6188 3.38438C15.7688 3.64063 15.775 3.9 15.6375 4.1625L12.975 8.9625C12.8375 9.2125 12.6531 9.40625 12.4219 9.54375C12.1906 9.68125 11.9375 9.75 11.6625 9.75H6.075L5.25 11.25H14.25V12.75H5.25C4.6875 12.75 4.2625 12.5031 3.975 12.0094C3.6875 11.5156 3.675 11.025 3.9375 10.5375L4.95 8.7L2.25 3H0.75V1.5H3.1875L3.9 3Z" fill="white"/>
</g>
</svg>
