<svg width="16" height="17" viewBox="0 0 16 17" fill="none" xmlns="http://www.w3.org/2000/svg">
<g id="solar:card-2-broken">
<g id="Group">
<path id="Vector" d="M6.66667 11.9678H4M5.33333 9.96777H4" stroke="#FF4B55" stroke-width="1.5" stroke-linecap="round"/>
<path id="Vector_2" d="M9.33301 10.9676C9.33301 10.3389 9.33301 10.0249 9.52834 9.82961C9.72367 9.63428 10.0377 9.63428 10.6663 9.63428C11.295 9.63428 11.609 9.63428 11.8043 9.82961C11.9997 10.0249 11.9997 10.3389 11.9997 10.9676C11.9997 11.5963 11.9997 11.9103 11.8043 12.1056C11.609 12.3009 11.295 12.3009 10.6663 12.3009C10.0377 12.3009 9.72367 12.3009 9.52834 12.1056C9.33301 11.9103 9.33301 11.5963 9.33301 10.9676Z" stroke="#FF4B55" stroke-width="1.5"/>
<path id="Vector_3" d="M14.6663 8.96761C14.6663 6.45361 14.6663 5.19628 13.885 4.41561C13.1043 3.63428 11.847 3.63428 9.33301 3.63428H6.66634C4.15234 3.63428 2.89501 3.63428 2.11434 4.41561C1.33301 5.19628 1.33301 6.45361 1.33301 8.96761C1.33301 11.4816 1.33301 12.7389 2.11434 13.5196C2.89501 14.3009 4.15234 14.3009 6.66634 14.3009H9.33301C11.847 14.3009 13.1043 14.3009 13.885 13.5196C14.321 13.0843 14.5137 12.5009 14.5983 11.6343M1.33301 7.63428H4.66634M14.6663 7.63428H7.33301" stroke="#FF4B55" stroke-width="1.5" stroke-linecap="round"/>
</g>
</g>
</svg>
