<svg width="24" height="24" viewBox="0 0 24 24" fill="none" xmlns="http://www.w3.org/2000/svg">
<g id="twitter-fill">
<path id="Vector" d="M22.2125 5.65703C21.4491 5.99473 20.6395 6.21652 19.8106 6.31508C20.6839 5.79229 21.3374 4.96988 21.6493 4.00103C20.8287 4.48859 19.9305 4.83175 18.9938 5.01559C18.2031 4.17204 17.098 3.69401 15.9418 3.69532C13.6326 3.69532 11.7597 5.56759 11.7597 7.87781C11.7597 8.20556 11.7973 8.5234 11.8676 8.83007C8.39048 8.65502 5.31008 6.99103 3.24678 4.46039C2.87529 5.09865 2.68006 5.82415 2.68105 6.56264C2.68105 8.01357 3.41961 9.29422 4.5415 10.044C3.87738 10.023 3.22789 9.84361 2.64719 9.5207C2.64655 9.53827 2.64654 9.55584 2.64654 9.57245C2.64654 11.5994 4.0882 13.2902 6.002 13.6741C5.64281 13.7713 5.27233 13.8204 4.90022 13.8201C4.62997 13.8201 4.36772 13.7952 4.1128 13.7463C4.64532 15.4075 6.18886 16.6169 8.0196 16.6501C6.53813 17.8128 4.70869 18.4436 2.82543 18.4409C2.49212 18.4412 2.15909 18.4215 1.82812 18.3821C3.74004 19.6112 5.96552 20.2635 8.23842 20.2611C15.9316 20.2611 20.138 13.8885 20.138 8.36208C20.138 8.18127 20.1336 7.99984 20.1256 7.82095C20.9443 7.22943 21.651 6.49665 22.2125 5.65703Z" fill="white"/>
</g>
</svg>
