<svg width="21" height="20" viewBox="0 0 21 20" fill="none" xmlns="http://www.w3.org/2000/svg">
<g id="twitter-fill">
<path id="Vector" d="M19.0104 4.71411C18.3743 4.99552 17.6996 5.18036 17.0088 5.26249C17.7366 4.82683 18.2812 4.14148 18.5411 3.33411C17.8573 3.74041 17.1088 4.02637 16.3282 4.17957C15.6693 3.47661 14.7483 3.07826 13.7848 3.07935C11.8605 3.07935 10.2998 4.63957 10.2998 6.56476C10.2998 6.83788 10.3311 7.10275 10.3897 7.35831C7.49206 7.21243 4.92506 5.82577 3.20565 3.71691C2.89608 4.24879 2.73338 4.85338 2.7342 5.46879C2.7342 6.67789 3.34967 7.7451 4.28458 8.3699C3.73115 8.3524 3.1899 8.20293 2.70599 7.93384C2.70545 7.94848 2.70545 7.96312 2.70545 7.97696C2.70545 9.66606 3.90683 11.0751 5.50166 11.395C5.20234 11.476 4.8936 11.5169 4.58352 11.5166C4.35831 11.5166 4.13976 11.4959 3.92733 11.4551C4.3711 12.8395 5.65739 13.8473 7.183 13.875C5.94845 14.8439 4.42391 15.3696 2.85453 15.3673C2.57677 15.3676 2.29925 15.3511 2.02344 15.3183C3.6167 16.3426 5.47127 16.8861 7.36535 16.8841C13.7763 16.8841 17.2817 11.5736 17.2817 6.96832C17.2817 6.81765 17.278 6.66645 17.2713 6.51737C17.9536 6.02444 18.5425 5.41379 19.0104 4.71411Z" fill="#E66B66"/>
</g>
</svg>
